File Name

Abandoned 2010 720p BRRip H264.mp4

File Size
Format : MPEG-4
Format profile : Base Media
Codec ID : isom
File size : 1.81 GiB
Duration : 1h 28mn
Overall bit rate : 2 940 Kbps

Video
ID : 1
Format : AVC
Format/Info : Advanced Video Codec
Format profile : High@L4.1
Format settings, CABAC : Yes
Format settings, ReFrames : 3 frames
Codec ID : avc1
Codec ID/Info : Advanced Video Coding
Duration : 1h 28mn
Bit rate mode : Variable
Bit rate : 2 299 Kbps
Maximum bit rate : 9 984 Kbps
Width : 1 280 pixels
Height : 720 pixels
Display aspect ratio : 16:9
Frame rate mode : Constant
Frame rate : 23.976 fps
Resolution : 24 bits
Colorimetry : 4:2:0
Scan type : Progressive
Bits/(Pixel*Frame) : 0.104
Stream size : 1.41 GiB (78%)

Audio #1
ID : 2
Format : AAC
Format/Info : Advanced Audio Codec
Format version : Version 4
Format profile : LC
Format settings, SBR : No
Codec ID : 40
Duration : 1h 28mn
Bit rate mode : Variable
Bit rate : 192 Kbps
Maximum bit rate : 200 Kbps
Channel(s) : 2 channels
Channel positions : L R
Sampling rate : 48.0 KHz
Resolution : 16 bits
Stream size : 120 MiB (6%)

Audio #2
ID : 3
Format : AAC
Format/Info : Advanced Audio Codec
Format version : Version 4
Format profile : LC
Format settings, SBR : No
Codec ID : 40
Duration : 1h 28mn
Bit rate mode : Variable
Bit rate : 448 Kbps
Maximum bit rate : 461 Kbps
Channel(s) : 6 channels
Channel positions : Front: L C R, Rear: L R, LFE
Sampling rate : 48.0 KHz
Resolution : 16 bits
Stream size : 282 MiB (15%)

English SRT : ----

Language : English



 
http://www.imdb.com/title/tt1470171/

Release Date: 24 August 2010 (USA) 

Genre: Drama | Mystery | Thriller 

Plot: Mary Walsh delivers boyfriend Kevin to a hospital for routine outpatient surgery. But when Mary returns to take him home, he's mysteriously vanished. An administrator can find no record of him, and a police search turns up nothing. Increasingly frantic, Mary's taken to staff psychiatrist Dr. Bensley, who pronounces her unstable. Now she must not only find her missing boyfriend, but prove her own sanity as well. When a stranger informs her he knows Kevin's whereabouts and demands a $10 billion ransom, she has one hour to comply... and her boyfriend's life hangs in the balance. Forced to embezzle the money from the bank where she works, Mary soon discovers the shocking truth behind the disappearance. Now time is running out and she must take matters into her own hands to save herself.

Cast: 
Brittany Murphy ... Mary
Dean Cain ... Kevin
Stan Bly ... James
Peter Bogdanovich ... Dr. Markus Bensley
Javen Campbell ... Dr. Daley
Crystal Leah Chacon ... The girl in the red dress
Caia Coley ... Jennifer
Kat Delancey ... Trauma Nurse
Diane Healey ... Police Dispatcher
Kristen Kerr ... Christine
Scott Anthony Leet ... John Holloway
Jay Pickett ... Franklin
Mimi Rogers ... Markham
Tino Struckmann ... JJ Walsh
Tara Subkoff ... Anna
Tim Thomerson ... Cooper
Adam Weinberg ... Hospital Employee
America Young ... Amanda



 
http://thepiratebay.org/user/hiest





Screenshots:
 
http://www.imagebam.com/image/07ae3094311015
 
http://www.imagebam.com/image/4578c394311125
 
http://www.imagebam.com/image/f335f594311363
 
http://www.imagebam.com/image/2cbcfd94311378
 
http://www.imagebam.com/image/a06ad094311405
 
http://www.imagebam.com/image/cdfae594311412
 
http://www.imagebam.com/image/4820a694311446
 
http://www.imagebam.com/image/fade8794311526
 
http://www.imagebam.com/image/b525b094311538


